<svg width="15" height="16" viewBox="0 0 15 16" fill="none" xmlns="http://www.w3.org/2000/svg">
<g id="fluent:ios-arrow-24-filled">
<path id="Vector" d="M2.30453 5.25507C2.24486 5.19868 2.17467 5.1546 2.09796 5.12534C2.02126 5.09608 1.93954 5.08221 1.85748 5.08454C1.77541 5.08686 1.69461 5.10532 1.61968 5.13887C1.54475 5.17242 1.47717 5.2204 1.42078 5.28007C1.36439 5.33974 1.32031 5.40993 1.29105 5.48663C1.26179 5.56334 1.24793 5.64506 1.25025 5.72712C1.25257 5.80918 1.27103 5.88999 1.30458 5.96492C1.33813 6.03984 1.38611 6.10743 1.44578 6.16382L7.07078 11.4763C7.18682 11.586 7.34046 11.6472 7.50016 11.6472C7.65985 11.6472 7.81349 11.586 7.92953 11.4763L13.5552 6.16382C13.6161 6.1078 13.6654 6.04023 13.7 5.96503C13.7347 5.88982 13.754 5.80848 13.7569 5.72574C13.7599 5.64299 13.7464 5.56049 13.7171 5.48301C13.6879 5.40554 13.6436 5.33464 13.5868 5.27444C13.5299 5.21424 13.4617 5.16594 13.386 5.13233C13.3103 5.09873 13.2287 5.0805 13.1459 5.07869C13.0632 5.07689 12.9809 5.09155 12.9038 5.12183C12.8267 5.15211 12.7564 5.1974 12.697 5.25507L7.50016 10.1626L2.30453 5.25507Z" fill="#1E1E1E"/>
</g>
</svg>
