<svg width="98" height="15" viewBox="0 0 98 15" fill="none" xmlns="http://www.w3.org/2000/svg">
<path d="M13.6562 6.71406L10.8375 9.17406L11.6818 12.8366C11.7265 13.028 11.7138 13.2284 11.6452 13.4127C11.5766 13.5969 11.4552 13.7569 11.2962 13.8725C11.1372 13.9882 10.9477 14.0544 10.7512 14.0629C10.5548 14.0714 10.3602 14.0218 10.1918 13.9203L6.99747 11.9828L3.80996 13.9203C3.64157 14.0218 3.447 14.0714 3.25057 14.0629C3.05415 14.0544 2.86459 13.9882 2.70559 13.8725C2.54659 13.7569 2.42521 13.5969 2.35662 13.4127C2.28803 13.2284 2.27528 13.028 2.31996 12.8366L3.16309 9.1778L0.343715 6.71406C0.194595 6.58544 0.0867665 6.41567 0.03375 6.22602C-0.0192664 6.03637 -0.0151101 5.83529 0.0456975 5.648C0.106505 5.4607 0.221257 5.29553 0.375564 5.17319C0.529871 5.05085 0.716862 4.97679 0.91309 4.96031L4.62934 4.63843L6.07997 1.17843C6.15572 0.996878 6.2835 0.841797 6.44721 0.732716C6.61092 0.623635 6.80324 0.56543 6.99997 0.56543C7.19669 0.56543 7.38901 0.623635 7.55272 0.732716C7.71643 0.841797 7.84421 0.996878 7.91997 1.17843L9.37496 4.63843L13.09 4.96031C13.2862 4.97679 13.4732 5.05085 13.6275 5.17319C13.7818 5.29553 13.8966 5.4607 13.9574 5.648C14.0182 5.83529 14.0223 6.03637 13.9693 6.22602C13.9163 6.41567 13.8085 6.58544 13.6593 6.71406H13.6562Z" fill="#0F6528"/>
<path d="M34.6562 6.71406L31.8375 9.17406L32.6818 12.8366C32.7265 13.028 32.7138 13.2284 32.6452 13.4127C32.5766 13.5969 32.4552 13.7569 32.2962 13.8725C32.1372 13.9882 31.9477 14.0544 31.7512 14.0629C31.5548 14.0714 31.3602 14.0218 31.1918 13.9203L27.9975 11.9828L24.81 13.9203C24.6416 14.0218 24.447 14.0714 24.2506 14.0629C24.0541 14.0544 23.8646 13.9882 23.7056 13.8725C23.5466 13.7569 23.4252 13.5969 23.3566 13.4127C23.288 13.2284 23.2753 13.028 23.32 12.8366L24.1631 9.1778L21.3437 6.71406C21.1946 6.58544 21.0868 6.41567 21.0338 6.22602C20.9807 6.03637 20.9849 5.83529 21.0457 5.648C21.1065 5.4607 21.2213 5.29553 21.3756 5.17319C21.5299 5.05085 21.7169 4.97679 21.9131 4.96031L25.6293 4.63843L27.08 1.17843C27.1557 0.996878 27.2835 0.841797 27.4472 0.732716C27.6109 0.623635 27.8032 0.56543 28 0.56543C28.1967 0.56543 28.389 0.623635 28.5527 0.732716C28.7164 0.841797 28.8442 0.996878 28.92 1.17843L30.375 4.63843L34.09 4.96031C34.2862 4.97679 34.4732 5.05085 34.6275 5.17319C34.7818 5.29553 34.8966 5.4607 34.9574 5.648C35.0182 5.83529 35.0223 6.03637 34.9693 6.22602C34.9163 6.41567 34.8085 6.58544 34.6593 6.71406H34.6562Z" fill="#0F6528"/>
<path d="M55.6562 6.71406L52.8375 9.17406L53.6818 12.8366C53.7265 13.028 53.7138 13.2284 53.6452 13.4127C53.5766 13.5969 53.4552 13.7569 53.2962 13.8725C53.1372 13.9882 52.9477 14.0544 52.7512 14.0629C52.5548 14.0714 52.3602 14.0218 52.1918 13.9203L48.9975 11.9828L45.81 13.9203C45.6416 14.0218 45.447 14.0714 45.2506 14.0629C45.0541 14.0544 44.8646 13.9882 44.7056 13.8725C44.5466 13.7569 44.4252 13.5969 44.3566 13.4127C44.288 13.2284 44.2753 13.028 44.32 12.8366L45.1631 9.1778L42.3437 6.71406C42.1946 6.58544 42.0868 6.41567 42.0338 6.22602C41.9807 6.03637 41.9849 5.83529 42.0457 5.648C42.1065 5.4607 42.2213 5.29553 42.3756 5.17319C42.5299 5.05085 42.7169 4.97679 42.9131 4.96031L46.6293 4.63843L48.08 1.17843C48.1557 0.996878 48.2835 0.841797 48.4472 0.732716C48.6109 0.623635 48.8032 0.56543 49 0.56543C49.1967 0.56543 49.389 0.623635 49.5527 0.732716C49.7164 0.841797 49.8442 0.996878 49.92 1.17843L51.375 4.63843L55.09 4.96031C55.2862 4.97679 55.4732 5.05085 55.6275 5.17319C55.7818 5.29553 55.8966 5.4607 55.9574 5.648C56.0182 5.83529 56.0223 6.03637 55.9693 6.22602C55.9163 6.41567 55.8085 6.58544 55.6593 6.71406H55.6562Z" fill="#0F6528"/>
<path d="M76.6562 6.71406L73.8375 9.17406L74.6818 12.8366C74.7265 13.028 74.7138 13.2284 74.6452 13.4127C74.5766 13.5969 74.4552 13.7569 74.2962 13.8725C74.1372 13.9882 73.9477 14.0544 73.7512 14.0629C73.5548 14.0714 73.3602 14.0218 73.1918 13.9203L69.9975 11.9828L66.81 13.9203C66.6416 14.0218 66.447 14.0714 66.2506 14.0629C66.0541 14.0544 65.8646 13.9882 65.7056 13.8725C65.5466 13.7569 65.4252 13.5969 65.3566 13.4127C65.288 13.2284 65.2753 13.028 65.32 12.8366L66.1631 9.1778L63.3437 6.71406C63.1946 6.58544 63.0868 6.41567 63.0338 6.22602C62.9807 6.03637 62.9849 5.83529 63.0457 5.648C63.1065 5.4607 63.2213 5.29553 63.3756 5.17319C63.5299 5.05085 63.7169 4.97679 63.9131 4.96031L67.6293 4.63843L69.08 1.17843C69.1557 0.996878 69.2835 0.841797 69.4472 0.732716C69.6109 0.623635 69.8032 0.56543 70 0.56543C70.1967 0.56543 70.389 0.623635 70.5527 0.732716C70.7164 0.841797 70.8442 0.996878 70.92 1.17843L72.375 4.63843L76.09 4.96031C76.2862 4.97679 76.4732 5.05085 76.6275 5.17319C76.7818 5.29553 76.8966 5.4607 76.9574 5.648C77.0182 5.83529 77.0223 6.03637 76.9693 6.22602C76.9163 6.41567 76.8085 6.58544 76.6593 6.71406H76.6562Z" fill="#0F6528"/>
<path d="M97.6562 6.71406L94.8375 9.17406L95.6818 12.8366C95.7265 13.028 95.7138 13.2284 95.6452 13.4127C95.5766 13.5969 95.4552 13.7569 95.2962 13.8725C95.1372 13.9882 94.9477 14.0544 94.7512 14.0629C94.5548 14.0714 94.3602 14.0218 94.1918 13.9203L90.9975 11.9828L87.81 13.9203C87.6416 14.0218 87.447 14.0714 87.2506 14.0629C87.0541 14.0544 86.8646 13.9882 86.7056 13.8725C86.5466 13.7569 86.4252 13.5969 86.3566 13.4127C86.288 13.2284 86.2753 13.028 86.32 12.8366L87.1631 9.1778L84.3437 6.71406C84.1946 6.58544 84.0868 6.41567 84.0338 6.22602C83.9807 6.03637 83.9849 5.83529 84.0457 5.648C84.1065 5.4607 84.2213 5.29553 84.3756 5.17319C84.5299 5.05085 84.7169 4.97679 84.9131 4.96031L88.6293 4.63843L90.08 1.17843C90.1557 0.996878 90.2835 0.841797 90.4472 0.732716C90.6109 0.623635 90.8032 0.56543 91 0.56543C91.1967 0.56543 91.389 0.623635 91.5527 0.732716C91.7164 0.841797 91.8442 0.996878 91.92 1.17843L93.375 4.63843L97.09 4.96031C97.2862 4.97679 97.4732 5.05085 97.6275 5.17319C97.7818 5.29553 97.8966 5.4607 97.9574 5.648C98.0182 5.83529 98.0223 6.03637 97.9693 6.22602C97.9163 6.41567 97.8085 6.58544 97.6593 6.71406H97.6562Z" fill="#0F6528"/>
</svg>
